<svg xmlns="http://www.w3.org/2000/svg" xmlns:xlink="http://www.w3.org/1999/xlink" width="128" height="128" viewBox="0 0 128 128" fill="none"><g filter="url(#filter_2_24)"><ellipse cx="65.11768531799316" cy="61.045594692230225" rx="49.845956802368164" ry="47.5176100730896"   fill="url(#linear_fill_2_13)" ></ellipse><path     fill="url(#linear_fill_2_14_0)"  d="M61.5202 10.1806L68.0156 18.6444C68.492 19.2651 68.1108 20.1602 67.336 20.2403L56.3993 21.3708C55.6245 21.4509 55.051 20.6545 55.3767 19.9508L59.8181 10.3565C60.1324 9.67744 61.0605 9.58151 61.5202 10.1806Z"></path><path     fill="url(#linear_fill_2_15_0)"  d="M99.6561 21.4685L95.539 31.3912C95.2508 32.0859 94.2814 32.216 93.7904 31.6259L86.8345 23.2656C86.3435 22.6754 86.6971 21.8052 87.4724 21.6958L98.5453 20.1334C99.3269 20.0231 99.9467 20.7681 99.6561 21.4685Z"></path><path     fill="url(#linear_fill_2_19_0)"  d="M26.0783 20.3605L40.1533 23.9032C40.915 24.095 41.1732 25.0009 40.618 25.5341L30.362 35.3826C29.8068 35.9158 28.8546 35.6763 28.6479 34.9516L24.8289 21.5603C24.6221 20.8353 25.3163 20.1687 26.0783 20.3605Z"></path><path     fill="url(#linear_fill_2_20_0)"  d="M11.8816 53.2025L23.0937 47.4263C23.7708 47.0775 24.572 47.5813 24.5495 48.3417L24.1909 60.4863C24.1685 61.2467 23.3388 61.7068 22.6834 61.3222L11.8299 54.9539C11.1509 54.5555 11.1802 53.5639 11.8816 53.2025Z"></path><path     fill="url(#linear_fill_2_21_0)"  d="M13.1783 86.2949L20.9298 75.7889C21.3762 75.1838 22.3387 75.2848 22.6729 75.9717L28.3414 87.6242C28.6755 88.3112 28.1346 89.0768 27.3617 89.0107L13.9417 87.8642C13.1509 87.7966 12.7215 86.914 13.1783 86.2949Z"></path><path     fill="url(#linear_fill_2_22_0)"  d="M39.5735 113.778L37.7268 97.5874C37.6402 96.8284 38.438 96.2471 39.1534 96.5478L54.7856 103.119C55.501 103.419 55.5888 104.373 54.9426 104.824L41.1571 114.444C40.5264 114.884 39.658 114.519 39.5735 113.778Z"></path><path     fill="url(#linear_fill_2_16_0)"  d="M117.478 52.6491L104.661 61.2935C104.033 61.7174 103.173 61.3091 103.1 60.5517L101.655 45.6486C101.582 44.8912 102.348 44.3397 103.047 44.6467L117.309 50.9055C118.033 51.2232 118.128 52.2103 117.478 52.6491Z"></path><path     fill="url(#linear_fill_2_17_0)"  d="M108.419 92.5486L96.5086 91.838C95.7294 91.7915 95.3063 90.9543 95.7442 90.3256L102.345 80.848C102.783 80.2192 103.756 80.2661 104.104 80.9326L109.413 91.1208C109.766 91.7966 109.209 92.5958 108.419 92.5486Z"></path><path     fill="url(#linear_fill_2_18_0)"  d="M83.2745 113.384L73.5521 104.332C72.9766 103.796 73.2006 102.858 73.952 102.657L87.0362 99.1564C87.7876 98.9554 88.491 99.6456 88.292 100.389L84.9302 112.941C84.7373 113.661 83.8324 113.903 83.2745 113.384Z"></path></g><defs><radialGradient id="linear_fill_2_13" cx="0" cy="0" r="1" gradientTransform="translate(65.11768531799316 61.045594692230225) rotate(-180) scale(47.5176100730896, 47.5176100730896)" gradientUnits="userSpaceOnUse"><stop offset="0" stop-color="#CCCCCC"  /><stop offset="1" stop-color="#A1A1A1"  /></radialGradient><linearGradient id="linear_fill_2_14_0" x1="60.50927734375" y1="8.86328125" x2="62.3204345703125" y2="24.7862548828125" gradientUnits="userSpaceOnUse"><stop offset="0" stop-color="#ADADAD"  /><stop offset="1" stop-color="#545454"  /></linearGradient><linearGradient id="linear_fill_2_15_0" x1="86.978759765625" y1="29.966339111328125" x2="100.3134765625" y2="19.8839111328125" gradientUnits="userSpaceOnUse"><stop offset="0.475" stop-color="#707070"  /><stop offset="1" stop-color="#CFCFCF"  /></linearGradient><linearGradient id="linear_fill_2_19_0" x1="39.1988525390625" y1="33.968170166015625" x2="24.3636474609375" y2="19.92889404296875" gradientUnits="userSpaceOnUse"><stop offset="0.475" stop-color="#707070"  /><stop offset="1" stop-color="#CFCFCF"  /></linearGradient><linearGradient id="linear_fill_2_20_0" x1="29.072021484375" y1="54.540191650390625" x2="10.2646484375" y2="54.0355224609375" gradientUnits="userSpaceOnUse"><stop offset="0.475" stop-color="#707070"  /><stop offset="1" stop-color="#CFCFCF"  /></linearGradient><linearGradient id="linear_fill_2_21_0" x1="29.9647216796875" y1="79.82736206054688" x2="12.13427734375" y2="87.70980834960938" gradientUnits="userSpaceOnUse"><stop offset="0.475" stop-color="#707070"  /><stop offset="1" stop-color="#CFCFCF"  /></linearGradient><linearGradient id="linear_fill_2_22_0" x1="49.3724365234375" y1="94.63815307617188" x2="39.7606201171875" y2="115.41851806640625" gradientUnits="userSpaceOnUse"><stop offset="0.475" stop-color="#707070"  /><stop offset="1" stop-color="#CFCFCF"  /></linearGradient><linearGradient id="linear_fill_2_16_0" x1="96.84423828125" y1="53.587615966796875" x2="118.9771728515625" y2="51.63775634765625" gradientUnits="userSpaceOnUse"><stop offset="0.475" stop-color="#707070"  /><stop offset="1" stop-color="#CFCFCF"  /></linearGradient><linearGradient id="linear_fill_2_17_0" x1="95.32177734375" y1="83.23046875" x2="110.21337890625" y2="92.65570068359375" gradientUnits="userSpaceOnUse"><stop offset="0.475" stop-color="#707070"  /><stop offset="1" stop-color="#CFCFCF"  /></linearGradient><linearGradient id="linear_fill_2_18_0" x1="79.1572265625" y1="96.3658447265625" x2="84.5047607421875" y2="114.52935791015625" gradientUnits="userSpaceOnUse"><stop offset="0.475" stop-color="#707070"  /><stop offset="1" stop-color="#CFCFCF"  /></linearGradient><filter id="filter_2_24" x="7.1510009765625" y="5.581512451171875" width="118.9774169921875" height="117.30255126953125" filterUnits="userSpaceOnUse" color-interpolation-filters="sRGB"><feFlood flood-opacity="0" result="feFloodId_2_24"/><feColorMatrix in="SourceAlpha" type="matrix" values="0 0 0 0 0 0 0 0 0 0 0 0 0 0 0 0 0 0 127 0" result="hardAlpha_2_24"/><feOffset dx="2" dy="2"/><feGaussianBlur stdDeviation="3"/><feComposite in2="hardAlpha_2_24" operator="out"/><feColorMatrix type="matrix" values="0 0 0 0 0 0 0 0 0 0 0 0 0 0 0 0 0 0 0.25 0"/><feBlend mode="normal" in2="feFloodId_2_24" result="dropShadow_1_2_24"/><feBlend mode="normal" in="SourceGraphic" in2="dropShadow_1_2_24" result="shape_2_24"/></filter></defs></svg>