<svg xmlns="http://www.w3.org/2000/svg" xmlns:xlink="http://www.w3.org/1999/xlink" width="128" height="128" viewBox="0 0 128 128" fill="none"><g filter="url(#filter_1_24)"><rect  x="8" y="8" width="112" height="112" rx="5"    fill="url(#linear_fill_1_23_0)" ></rect><g ><path     fill="url(#linear_fill_1_25_0)"  d="M19.328 18Q20.112 18 20.752 18.24Q21.392 18.48 21.848 18.928Q22.304 19.376 22.552 19.992Q22.8 20.608 22.8 21.36Q22.8 22.112 22.544 22.728Q22.288 23.344 21.832 23.792Q21.376 24.24 20.736 24.48Q20.096 24.72 19.328 24.72L16.88 24.72L16.88 29.52L15.44 29.52L15.44 18L19.328 18ZM16.88 23.44L19.328 23.44Q20.224 23.44 20.768 22.872Q21.312 22.304 21.312 21.36Q21.312 20.416 20.768 19.848Q20.224 19.28 19.328 19.28L16.88 19.28L16.88 23.44Z"></path><path     fill="url(#linear_fill_1_25_0)"  d="M24.4 20.72L26 20.72L28.016 25.776Q28.16 26.144 28.248 26.464Q28.336 26.784 28.384 27.024Q28.448 27.328 28.464 27.568L28.576 27.568Q28.592 27.328 28.656 27.04Q28.704 26.784 28.784 26.464Q28.864 26.144 28.992 25.776L30.848 20.72L32.4 20.72L28.112 32.24L26.576 32.24L27.808 28.88L24.4 20.72ZM34.16 20.72L36.72 20.72L36.72 18L38.16 18L38.16 20.72L41.6 20.72L41.6 22.032L38.16 22.032L38.16 27.248Q38.16 27.696 38.44 27.952Q38.72 28.208 39.2 28.208L41.44 28.208L41.44 29.52L39.2 29.52Q38.064 29.52 37.392 28.896Q36.72 28.272 36.72 27.248L36.72 22.032L34.16 22.032L34.16 20.72ZM44.208 29.52L44.208 18L45.648 18L45.648 20.72Q45.648 20.944 45.64 21.208Q45.632 21.472 45.616 21.696Q45.584 21.968 45.568 22.24L45.696 22.24Q45.904 21.44 46.536 21Q47.168 20.56 48.112 20.56Q48.768 20.56 49.304 20.784Q49.84 21.008 50.216 21.416Q50.592 21.824 50.8 22.392Q51.008 22.96 51.008 23.664L51.008 29.52L49.568 29.52L49.568 23.904Q49.568 22.896 49.056 22.336Q48.544 21.776 47.632 21.776Q46.72 21.776 46.184 22.376Q45.648 22.976 45.648 24L45.648 29.52L44.208 29.52ZM57.2 29.68Q56.384 29.68 55.736 29.44Q55.088 29.2 54.632 28.752Q54.176 28.304 53.928 27.664Q53.68 27.024 53.68 26.24L53.68 24Q53.68 23.2 53.928 22.568Q54.176 21.936 54.632 21.488Q55.088 21.04 55.736 20.8Q56.384 20.56 57.2 20.56Q58.832 20.56 59.776 21.472Q60.72 22.384 60.72 23.984L60.72 26.24Q60.72 27.84 59.784 28.76Q58.848 29.68 57.2 29.68ZM55.12 26.24Q55.12 27.248 55.672 27.824Q56.224 28.4 57.2 28.4Q58.16 28.4 58.72 27.824Q59.28 27.248 59.28 26.24L59.28 24Q59.28 22.992 58.72 22.416Q58.16 21.84 57.2 21.84Q56.24 21.84 55.68 22.416Q55.12 22.992 55.12 24L55.12 26.24ZM63.408 20.72L64.768 20.72L64.768 22.24L64.896 22.24Q65.104 21.424 65.728 20.992Q66.352 20.56 67.312 20.56Q68 20.56 68.536 20.792Q69.072 21.024 69.448 21.44Q69.824 21.856 70.016 22.424Q70.208 22.992 70.208 23.664L70.208 29.52L68.768 29.52L68.768 23.904Q68.768 22.896 68.256 22.336Q67.744 21.776 66.832 21.776Q65.92 21.776 65.384 22.376Q64.848 22.976 64.848 24L64.848 29.52L63.408 29.52L63.408 20.72ZM24.88 43.84Q24.88 43.04 25.096 42.4Q25.312 41.76 25.696 41.32Q26.08 40.88 26.624 40.64Q27.168 40.4 27.84 40.4Q28.816 40.4 29.456 40.84Q30.096 41.28 30.304 42.08L30.432 42.08Q30.416 41.808 30.4 41.536Q30.368 41.296 30.36 41.032Q30.352 40.768 30.352 40.56L30.352 37.84L31.792 37.84L31.792 49.36L30.432 49.36L30.432 47.84L30.304 47.84Q30.096 48.64 29.456 49.08Q28.816 49.52 27.84 49.52Q27.168 49.52 26.624 49.28Q26.08 49.04 25.696 48.6Q25.312 48.16 25.096 47.52Q24.88 46.88 24.88 46.08L24.88 43.84ZM26.32 43.84L26.32 46.08Q26.32 47.088 26.872 47.68Q27.424 48.272 28.384 48.272Q29.28 48.272 29.816 47.68Q30.352 47.088 30.352 46.08L30.352 43.84Q30.352 42.832 29.816 42.24Q29.28 41.648 28.384 41.648Q27.408 41.648 26.864 42.224Q26.32 42.8 26.32 43.84ZM34.72 49.36L34.72 48.048L37.92 48.048L37.92 41.872L35.12 41.872L35.12 40.56L39.36 40.56L39.36 48.048L42 48.048L42 49.36L34.72 49.36ZM38.24 37.12L38.56 37.12Q39.024 37.12 39.312 37.392Q39.6 37.664 39.6 38.096Q39.6 38.528 39.312 38.784Q39.024 39.04 38.56 39.04L38.24 39.04Q37.776 39.04 37.488 38.792Q37.2 38.544 37.2 38.096Q37.2 37.664 37.488 37.392Q37.776 37.12 38.24 37.12ZM43.76 40.56L46.32 40.56L46.32 37.84L47.76 37.84L47.76 40.56L51.2 40.56L51.2 41.872L47.76 41.872L47.76 47.088Q47.76 47.536 48.04 47.792Q48.32 48.048 48.8 48.048L51.04 48.048L51.04 49.36L48.8 49.36Q47.664 49.36 46.992 48.736Q46.32 48.112 46.32 47.088L46.32 41.872L43.76 41.872L43.76 40.56ZM57.2 49.52Q56.384 49.52 55.736 49.28Q55.088 49.04 54.632 48.592Q54.176 48.144 53.928 47.504Q53.68 46.864 53.68 46.08L53.68 43.84Q53.68 43.04 53.928 42.408Q54.176 41.776 54.632 41.328Q55.088 40.88 55.736 40.64Q56.384 40.4 57.2 40.4Q58.832 40.4 59.776 41.312Q60.72 42.224 60.72 43.824L60.72 46.08Q60.72 47.68 59.784 48.6Q58.848 49.52 57.2 49.52ZM55.12 46.08Q55.12 47.088 55.672 47.664Q56.224 48.24 57.2 48.24Q58.16 48.24 58.72 47.664Q59.28 47.088 59.28 46.08L59.28 43.84Q59.28 42.832 58.72 42.256Q58.16 41.68 57.2 41.68Q56.24 41.68 55.68 42.256Q55.12 42.832 55.12 43.84L55.12 46.08ZM65.152 40.56L65.152 42.08L65.28 42.08Q65.488 41.296 66.144 40.848Q66.8 40.4 67.76 40.4Q69.152 40.4 69.944 41.272Q70.736 42.144 70.736 43.664L70.736 44.16L69.296 44.16L69.296 43.84Q69.296 42.8 68.776 42.232Q68.256 41.664 67.296 41.664Q66.352 41.664 65.792 42.248Q65.232 42.832 65.232 43.84L65.232 49.36L63.792 49.36L63.792 40.56L65.152 40.56Z"></path><path     fill="url(#linear_fill_1_25_0)"  d="M15.52 49.36L15.52 37.84L22.32 37.84L22.32 39.152L16.96 39.152L16.96 42.768L21.76 42.768L21.76 44.08L16.96 44.08L16.96 48.048L22.32 48.048L22.32 49.36L15.52 49.36Z"></path></g><rect x="71" y="49" width="8" height="1"   fill="url(#linear_fill_1_26)" ></rect></g><defs><linearGradient id="linear_fill_1_23_0" x1="8" y1="64" x2="120" y2="64" gradientUnits="userSpaceOnUse"><stop offset="0" stop-color="#383838"  /><stop offset="1" stop-color="#000000"  /></linearGradient><linearGradient id="linear_fill_1_25_0" x1="14" y1="34" x2="72" y2="34" gradientUnits="userSpaceOnUse"><stop offset="0.008" stop-color="#FFFFFF"  /><stop offset="1" stop-color="#DEDEDE"  /></linearGradient><linearGradient id="linear_fill_1_25_0" x1="14" y1="34" x2="72" y2="34" gradientUnits="userSpaceOnUse"><stop offset="0.008" stop-color="#FFFFFF"  /><stop offset="1" stop-color="#DEDEDE"  /></linearGradient><linearGradient id="linear_fill_1_25_0" x1="14" y1="34" x2="72" y2="34" gradientUnits="userSpaceOnUse"><stop offset="0.008" stop-color="#FFFFFF"  /><stop offset="1" stop-color="#DEDEDE"  /></linearGradient><linearGradient id="linear_fill_1_26" x1="71" y1="49.5" x2="79" y2="49.5" gradientUnits="userSpaceOnUse"><stop offset="0" stop-color="#FFFFFF"  /><stop offset="1" stop-color="#D4D4D4"  /></linearGradient><filter id="filter_1_24" x="4" y="4" width="124" height="124" filterUnits="userSpaceOnUse" color-interpolation-filters="sRGB"><feFlood flood-opacity="0" result="feFloodId_1_24"/><feColorMatrix in="SourceAlpha" type="matrix" values="0 0 0 0 0 0 0 0 0 0 0 0 0 0 0 0 0 0 127 0" result="hardAlpha_1_24"/><feOffset dx="2" dy="2"/><feGaussianBlur stdDeviation="3"/><feComposite in2="hardAlpha_1_24" operator="out"/><feColorMatrix type="matrix" values="0 0 0 0 0 0 0 0 0 0 0 0 0 0 0 0 0 0 0.25 0"/><feBlend mode="normal" in2="feFloodId_1_24" result="dropShadow_1_1_24"/><feBlend mode="normal" in="SourceGraphic" in2="dropShadow_1_1_24" result="shape_1_24"/></filter></defs></svg>