<svg xmlns="http://www.w3.org/2000/svg" xmlns:xlink="http://www.w3.org/1999/xlink" width="128" height="128" viewBox="0 0 128 128" fill="none"><g filter="url(#filter_2_29)"><path     fill="url(#linear_fill_2_27_0)"  d="M77.2312 39.8197L82.6231 68.8101C83.0984 71.3656 81.8741 73.9366 79.5905 75.1783L53.6852 89.2648C51.4016 90.5065 48.5782 90.1366 46.6916 88.3485L25.2893 68.0641C23.4027 66.276 22.882 63.4764 23.9996 61.1296L36.6776 34.5066C37.7952 32.1598 40.2968 30.7994 42.8741 31.1371L72.1118 34.9676C74.6891 35.3053 76.7559 37.2642 77.2312 39.8197Z"></path><path     fill="url(#linear_fill_2_28_0)"  d="M107.774 81.898L92.4047 107.063C91.0498 109.281 88.4206 110.375 85.8922 109.772L57.2092 102.931C54.6808 102.328 52.8282 100.165 52.6204 97.5743L50.2631 68.1812C50.0553 65.5901 51.5395 63.16 53.9396 62.1617L81.1657 50.8368C83.5657 49.8385 86.3356 50.4991 88.0266 52.4731L107.211 74.8671C108.902 76.8412 109.129 79.6796 107.774 81.898Z"></path><path     fill="url(#linear_fill_2_30_0)"  d="M102.955 35.065L103.691 64.5434C103.755 67.1419 102.14 69.4867 99.6883 70.3514L71.8801 80.1606C69.4288 81.0253 66.6995 80.2132 65.1196 78.149L47.1973 54.7331C45.6175 52.669 45.5464 49.8223 47.0213 47.6819L63.7529 23.4009C65.2278 21.2605 67.9132 20.3132 70.4046 21.0545L98.6676 29.4639C101.159 30.2052 102.89 32.4665 102.955 35.065Z"></path></g><g filter="url(#filter_2_33)"><foreignObject x="23" y="22" width="86" height="89"><div xmlns="http://www.w3.org/1999/xhtml" style="backdrop-filter:blur(2px);clip-path:url(#bgblur_76_79_4_clip_path);height:100%;width:100%"></div></foreignObject><rect  x="32" y="31" width="64" height="67" rx="6"    fill="url(#linear_fill_2_33_0)" fill-opacity="0.85"></rect></g><defs><clipPath id="bgblur_76_79_4_clip_path" transform="translate(-23 -22)"><rect x="32" y="31" width="64" height="67" rx="6"/></clipPath></defs><g ><path     fill="#FFFFFF"  d="M56.324 54Q57.696 54 58.816 54.42Q59.936 54.84 60.734 55.624Q61.532 56.408 61.966 57.486Q62.4 58.564 62.4 59.88Q62.4 61.196 61.952 62.274Q61.504 63.352 60.706 64.136Q59.908 64.92 58.788 65.34Q57.668 65.76 56.324 65.76L52.04 65.76L52.04 74.16L49.52 74.16L49.52 54L56.324 54ZM52.04 63.52L56.324 63.52Q57.892 63.52 58.844 62.526Q59.796 61.532 59.796 59.88Q59.796 58.228 58.844 57.234Q57.892 56.24 56.324 56.24L52.04 56.24L52.04 63.52ZM66.46 74.16L66.46 54L78.36 54L78.36 56.296L68.98 56.296L68.98 62.624L77.38 62.624L77.38 64.92L68.98 64.92L68.98 71.864L78.36 71.864L78.36 74.16L66.46 74.16Z"></path></g><defs><linearGradient id="linear_fill_2_27_0" x1="25.52557373046875" y1="74.64822387695312" x2="82.62921142578125" y2="43.5970458984375" gradientUnits="userSpaceOnUse"><stop offset="0" stop-color="#1FB2C2"  /><stop offset="1" stop-color="#27BECF"  /></linearGradient><linearGradient id="linear_fill_2_28_0" x1="46.037353515625" y1="73.23587036132812" x2="109.263916015625" y2="88.31576538085938" gradientUnits="userSpaceOnUse"><stop offset="0" stop-color="#AD7E1F"  /><stop offset="1" stop-color="#BF984B"  /></linearGradient><linearGradient id="linear_fill_2_30_0" x1="46.38861083984375" y1="61.27166748046875" x2="107.686767578125" y2="39.649078369140625" gradientUnits="userSpaceOnUse"><stop offset="0" stop-color="#044C80"  /><stop offset="1" stop-color="#0987E0"  /></linearGradient><filter id="filter_2_29" x="10" y="9" width="108.498046875" height="110.92904663085938" filterUnits="userSpaceOnUse" color-interpolation-filters="sRGB"><feFlood flood-opacity="0" result="feFloodId_2_29"/><feColorMatrix in="SourceAlpha" type="matrix" values="0 0 0 0 0 0 0 0 0 0 0 0 0 0 0 0 0 0 127 0" result="hardAlpha_2_29"/><feOffset dx="2" dy="2"/><feGaussianBlur stdDeviation="3"/><feComposite in2="hardAlpha_2_29" operator="out"/><feColorMatrix type="matrix" values="0 0 0 0 0 0 0 0 0 0 0 0 0 0 0 0 0 0 0.25 0"/><feBlend mode="normal" in2="feFloodId_2_29" result="dropShadow_1_2_29"/><feBlend mode="normal" in="SourceGraphic" in2="dropShadow_1_2_29" result="shape_2_29"/></filter><linearGradient id="linear_fill_2_33_0" x1="32" y1="64.5" x2="96" y2="64.5" gradientUnits="userSpaceOnUse"><stop offset="0" stop-color="#000000"  /><stop offset="1" stop-color="#1A1A1A"  /></linearGradient><filter id="filter_2_33" x="28" y="27" width="76" height="79" filterUnits="userSpaceOnUse" color-interpolation-filters="sRGB"><feFlood flood-opacity="0" result="feFloodId_2_33"/><feColorMatrix in="SourceAlpha" type="matrix" values="0 0 0 0 0 0 0 0 0 0 0 0 0 0 0 0 0 0 127 0" result="hardAlpha_2_33"/><feOffset dx="2" dy="2"/><feGaussianBlur stdDeviation="3"/><feComposite in2="hardAlpha_2_33" operator="out"/><feColorMatrix type="matrix" values="0 0 0 0 0 0 0 0 0 0 0 0 0 0 0 0 0 0 0.25 0"/><feBlend mode="normal" in2="feFloodId_2_33" result="dropShadow_1_2_33"/><feBlend mode="normal" in="SourceGraphic" in2="dropShadow_1_2_33" result="shape_2_33"/></filter></defs></svg>