<svg xmlns="http://www.w3.org/2000/svg" xmlns:xlink="http://www.w3.org/1999/xlink" width="128" height="128" viewBox="0 0 128 128" fill="none"><g filter="url(#filter_0_15)"><path     fill="url(#linear_fill_0_7_0)"  d="M38 8L114 8C117.314 8 120 10.6863 120 14L120 26L32 26L32 14C32 10.6863 34.6863 8 38 8Z"></path><rect x="32" y="26.00006103515625" width="87.99996566772461" height="30.000009536743164"   fill="url(#linear_fill_0_10)" ></rect><rect x="32" y="56" width="87.99997329711914" height="27.999996185302734"   fill="url(#linear_fill_0_12)" ></rect><path     fill="url(#linear_fill_0_14_0)"  d="M32 84L120 84L120 114C120 117.314 117.314 120 114 120L38 120C34.6863 120 32 117.314 32 114L32 84Z"></path></g><g filter="url(#filter_0_3)"><rect  x="8" y="30.8148193359375" width="64" height="64" rx="6"    fill="url(#linear_fill_0_3_0)" ></rect></g><g ><path     fill="#FFFFFF"  d="M30.4666 76.6898L36.9826 76.6898L39.8986 63.4778C40.2946 61.4258 40.6906 59.3738 41.0866 57.3578L41.2306 57.3578C41.5186 59.3738 41.9146 61.4258 42.3466 63.4778L45.3346 76.6898L51.9586 76.6898L56.8906 50.0138L51.8506 50.0138L49.7266 63.0458C49.3306 65.8178 48.9346 68.6618 48.5386 71.5418L48.3586 71.5418C47.7826 68.6618 47.2786 65.7818 46.6666 63.0458L43.5706 50.0138L38.9986 50.0138L35.9386 63.0458C35.3626 65.8178 34.7866 68.6618 34.2466 71.5418L34.1026 71.5418C33.7066 68.6618 33.2746 65.8538 32.8426 63.0458L30.7906 50.0138L25.3546 50.0138L30.4666 76.6898Z"></path></g><defs><linearGradient id="linear_fill_0_7_0" x1="32" y1="17" x2="119.99996948242188" y2="17" gradientUnits="userSpaceOnUse"><stop offset="0" stop-color="#1F6ECB"  /><stop offset="1" stop-color="#398BE3"  /></linearGradient><linearGradient id="linear_fill_0_10" x1="32" y1="41.00006580352783" x2="119.99996566772461" y2="41.00006580352783" gradientUnits="userSpaceOnUse"><stop offset="0" stop-color="#1452B5"  /><stop offset="1" stop-color="#247DD6"  /></linearGradient><linearGradient id="linear_fill_0_12" x1="32" y1="69.99999809265137" x2="119.99997329711914" y2="69.99999809265137" gradientUnits="userSpaceOnUse"><stop offset="0" stop-color="#124494"  /><stop offset="1" stop-color="#115BA6"  /></linearGradient><linearGradient id="linear_fill_0_14_0" x1="32" y1="102" x2="119.99996948242188" y2="102" gradientUnits="userSpaceOnUse"><stop offset="0" stop-color="#0B3985"  /><stop offset="1" stop-color="#144678"  /></linearGradient><filter id="filter_0_15" x="28" y="4" width="99.99996948242188" height="124" filterUnits="userSpaceOnUse" color-interpolation-filters="sRGB"><feFlood flood-opacity="0" result="feFloodId_0_15"/><feColorMatrix in="SourceAlpha" type="matrix" values="0 0 0 0 0 0 0 0 0 0 0 0 0 0 0 0 0 0 127 0" result="hardAlpha_0_15"/><feOffset dx="2" dy="2"/><feGaussianBlur stdDeviation="3"/><feComposite in2="hardAlpha_0_15" operator="out"/><feColorMatrix type="matrix" values="0 0 0 0 0 0 0 0 0 0 0 0 0 0 0 0 0 0 0.25 0"/><feBlend mode="normal" in2="feFloodId_0_15" result="dropShadow_1_0_15"/><feBlend mode="normal" in="SourceGraphic" in2="dropShadow_1_0_15" result="shape_0_15"/></filter><linearGradient id="linear_fill_0_3_0" x1="8" y1="62.8148193359375" x2="72" y2="62.8148193359375" gradientUnits="userSpaceOnUse"><stop offset="0" stop-color="#2569C2"  /><stop offset="1" stop-color="#2372CC"  /></linearGradient><filter id="filter_0_3" x="6" y="28.8148193359375" width="76" height="76" filterUnits="userSpaceOnUse" color-interpolation-filters="sRGB"><feFlood flood-opacity="0" result="feFloodId_0_3"/><feColorMatrix in="SourceAlpha" type="matrix" values="0 0 0 0 0 0 0 0 0 0 0 0 0 0 0 0 0 0 127 0" result="hardAlpha_0_3"/><feOffset dx="4" dy="4"/><feGaussianBlur stdDeviation="3"/><feComposite in2="hardAlpha_0_3" operator="out"/><feColorMatrix type="matrix" values="0 0 0 0 0 0 0 0 0 0 0 0 0 0 0 0 0 0 0.35 0"/><feBlend mode="normal" in2="feFloodId_0_3" result="dropShadow_1_0_3"/><feBlend mode="normal" in="SourceGraphic" in2="dropShadow_1_0_3" result="shape_0_3"/></filter></defs></svg>