<svg xmlns="http://www.w3.org/2000/svg" xmlns:xlink="http://www.w3.org/1999/xlink" width="128" height="128" viewBox="0 0 128 128" fill="none"><g  clip-path="url(#clip-path-1_31)"><g filter="url(#filter_1_45)"><rect  x="75" y="18" width="46" height="91" rx="6"    fill="#CCCCCC" ></rect><path     fill="#5EAB71"  d="M9 64L36 64L36 109L15 109C11.6863 109 9 106.314 9 103L9 64Z"></path><path     fill="#7ADE93"  d="M15 18L36 18L36 64L9 64L9 24C9 20.6863 11.6863 18 15 18Z"></path><path     fill="#5FCF7B"  d="M15 18L36 18L36 24L9 24L9 24C9 20.6863 11.6863 18 15 18Z"></path><path     fill="#439457"  d="M94 64L121 64L121 103C121 106.314 118.314 109 115 109L94 109L94 64Z"></path><path     fill="#4ECF6F"  d="M94 18L115 18C118.314 18 121 20.6863 121 24L121 64L94 64L94 18Z"></path><path     fill="#29B34B"  d="M94 18L115 18C118.314 18 121 20.6863 121 24L121 24L94 24L94 18Z"></path><g filter="url(#filter_1_54)"><path     fill="#4BDB80"  d="M42 8L88 8C91.3137 8 94 10.6863 94 14L94 24L36 24L36 14C36 10.6863 38.6863 8 42 8Z"></path><rect x="36" y="24" width="58" height="42"   fill="#2BA658" ></rect><rect x="36" y="66" width="58" height="43"   fill="#157538" ></rect><path     fill="#094720"  d="M36 109L94 109L94 114C94 117.314 91.3137 120 88 120L42 120C38.6863 120 36 117.314 36 114L36 109Z"></path></g></g></g><defs><clipPath id="clip-path-1_31"><path d="M0 128L128 128L128 0L0 0L0 128Z" fill="white"/></clipPath><filter id="filter_1_54" x="30" y="4" width="70" height="124" filterUnits="userSpaceOnUse" color-interpolation-filters="sRGB"><feFlood flood-opacity="0" result="feFloodId_1_54"/><feColorMatrix in="SourceAlpha" type="matrix" values="0 0 0 0 0 0 0 0 0 0 0 0 0 0 0 0 0 0 127 0" result="hardAlpha_1_54"/><feOffset dx="0" dy="2"/><feGaussianBlur stdDeviation="3"/><feComposite in2="hardAlpha_1_54" operator="out"/><feColorMatrix type="matrix" values="0 0 0 0 0 0 0 0 0 0 0 0 0 0 0 0 0 0 0.25 0"/><feBlend mode="normal" in2="feFloodId_1_54" result="dropShadow_1_1_54"/><feBlend mode="normal" in="SourceGraphic" in2="dropShadow_1_1_54" result="shape_1_54"/></filter><filter id="filter_1_45" x="5" y="4" width="124" height="124" filterUnits="userSpaceOnUse" color-interpolation-filters="sRGB"><feFlood flood-opacity="0" result="feFloodId_1_45"/><feColorMatrix in="SourceAlpha" type="matrix" values="0 0 0 0 0 0 0 0 0 0 0 0 0 0 0 0 0 0 127 0" result="hardAlpha_1_45"/><feOffset dx="2" dy="2"/><feGaussianBlur stdDeviation="3"/><feComposite in2="hardAlpha_1_45" operator="out"/><feColorMatrix type="matrix" values="0 0 0 0 0 0 0 0 0 0 0 0 0 0 0 0 0 0 0.25 0"/><feBlend mode="normal" in2="feFloodId_1_45" result="dropShadow_1_1_45"/><feBlend mode="normal" in="SourceGraphic" in2="dropShadow_1_1_45" result="shape_1_45"/></filter></defs></svg>